<svg width="66" height="45" viewBox="0 0 66 45" fill="none" xmlns="http://www.w3.org/2000/svg">
<path fill-rule="evenodd" clip-rule="evenodd" d="M63.217 17.9769C62.1383 16.5576 53.8861 5.46523 52.4661 3.45776C51.3597 1.90781 49.3128 0.862061 47.3765 0.862061H11.4172C10.071 0.862061 8.69721 1.47831 7.63687 2.54273C6.57653 3.60715 5.97721 5.00771 5.97721 6.37092V8.14496H2.42738C1.41314 8.14496 0.583313 8.98529 0.583313 10.0124C0.583313 11.0394 1.41314 11.8798 2.42738 11.8798H5.97721V17.2486H2.42738C1.41314 17.2486 0.583313 18.0889 0.583313 19.116C0.583313 20.1431 1.41314 20.9834 2.42738 20.9834H5.97721V26.3522H2.42738C1.41314 26.3522 0.583313 27.1925 0.583313 28.2196C0.583313 29.2467 1.41314 30.087 2.42738 30.087H5.97721V33.6818C5.97721 35.045 6.58575 36.4362 7.63687 37.51C8.68799 38.5837 10.071 39.1906 11.4172 39.1906H11.8782C12.7542 42.692 15.4649 44.6528 19.6141 44.6528C23.7632 44.6528 26.474 42.692 27.3407 39.1906H42.4344C43.3103 42.692 46.0211 44.6528 50.1703 44.6528C54.3194 44.6528 57.0302 42.692 57.9061 39.1906H59.9623C61.3084 39.1906 62.6823 38.5744 63.7426 37.51C64.8029 36.4455 65.4023 35.045 65.4023 33.6818V22.7574C65.3931 20.8565 64.0339 19.0579 63.2219 17.9834L63.217 17.9769ZM19.6049 40.918C16.5529 40.918 15.2529 39.6015 15.2529 36.5109C15.2529 33.4203 16.5529 32.1038 19.6049 32.1038C22.6568 32.1038 23.9569 33.4203 23.9569 36.5109C23.9569 39.6015 22.6568 40.918 19.6049 40.918ZM45.8091 36.5109C45.8091 39.6015 47.1091 40.918 50.1611 40.918C53.213 40.918 54.5131 39.6015 54.5131 36.5109C54.5131 33.4203 53.213 32.1038 50.1611 32.1038C47.1091 32.1038 45.8091 33.4203 45.8091 36.5109Z" fill="#313235"/>
</svg>
